<?xml version="1.0" encoding="UTF-8" standalone="no"?>
<svg width="157px" height="223px" viewBox="0 0 157 223" version="1.1" xmlns="http://www.w3.org/2000/svg" xmlns:xlink="http://www.w3.org/1999/xlink" xmlns:sketch="http://www.bohemiancoding.com/sketch/ns">
    <!-- Generator: Sketch 3.3 (11970) - http://www.bohemiancoding.com/sketch -->
    <title>Group 217</title>
    <desc>Created with Sketch.</desc>
    <defs>
        <path id="path-1" d="M57.8027895,0.04 C25.8099289,1.2064621 0,27.7354612 0,60 L0,208 C0,241 27,268 60,268 L208,268 C241,268 268,241 268,208 L268,60 C268,27.7354612 242.190071,1.2064621 210.197211,0.04 L57.8027895,0.04 L57.8027895,0.04 Z"></path>
        <path id="path-3" d="M57.8027895,0.04 C25.8099289,1.2064621 0,27.7354612 0,60 L0,208 C0,241 27,268 60,268 L208,268 C241,268 268,241 268,208 L268,60 C268,27.7354612 242.190071,1.2064621 210.197211,0.04 L57.8027895,0.04 L57.8027895,0.04 Z"></path>
    </defs>
    <g id="Page-1" stroke="none" stroke-width="1" fill="none" fill-rule="evenodd" sketch:type="MSPage">
        <g id="15_b2NjdXBhdGlvbnMtYXBwLWljb25zLW1hbGUtMS5qcGc" sketch:type="MSLayerGroup" transform="translate(-633.000000, -45.000000)">
            <g id="Group-188" transform="translate(576.000000, 0.000000)">
                <mask id="mask-2" sketch:name="Clip 187" fill="white">
                    <use xlink:href="#path-1"></use>
                </mask>
                <g id="Clip-187"></g>
                <path d="M-575.94,0.04 L268,0.04 L268,844 L-575.94,844 L-575.94,0.04 Z" id="Fill-186" sketch:type="MSShapeGroup" mask="url(#mask-2)"></path>
            </g>
            <g id="Group-217" transform="translate(576.000000, 0.000000)">
                <mask id="mask-4" sketch:name="Clip 190" fill="white">
                    <use xlink:href="#path-3"></use>
                </mask>
                <g id="Clip-190"></g>
                <path d="M116.557,175.424 L154.495,175.424 L154.495,223.839 L116.557,223.839 L116.557,175.424 Z" id="Fill-189" fill="#F9DFA9" sketch:type="MSShapeGroup" mask="url(#mask-4)"></path>
                <path d="M154.495,175.424 L154.495,197.579 C139.587,195.051 126.361,187.593 116.557,176.943 L116.557,175.424 L154.495,175.424" id="Fill-191" fill="#EBCE95" sketch:type="MSShapeGroup" mask="url(#mask-4)"></path>
                <path d="M178.525,120.511 C178.525,148.51 159.262,183.469 135.511,183.469 C111.76,183.469 92.498,148.51 92.498,120.511 C92.498,92.512 98.23,69.808 135.511,69.808 C172.793,69.808 178.525,92.512 178.525,120.511" id="Fill-192" fill="#FFE8B9" sketch:type="MSShapeGroup" mask="url(#mask-4)"></path>
                <path d="M178.525,120.511 C178.525,148.51 159.262,183.469 135.511,183.469 L135.511,69.808 C172.793,69.808 178.525,92.512 178.525,120.511" id="Fill-193" fill="#F9DFA9" sketch:type="MSShapeGroup" mask="url(#mask-4)"></path>
                <path d="M105.554,129.001 C105.554,137.584 101.036,144.541 95.462,144.541 C89.888,144.541 85.663,133.895 85.663,125.313 C85.663,116.731 89.888,113.462 95.462,113.462 C101.036,113.462 105.554,120.419 105.554,129.001" id="Fill-194" fill="#FFE8B9" sketch:type="MSShapeGroup" mask="url(#mask-4)"></path>
                <path d="M165.469,129.001 C165.469,137.584 169.987,144.541 175.561,144.541 C181.135,144.541 185.359,133.895 185.359,125.313 C185.359,116.731 181.135,113.462 175.561,113.462 C169.987,113.462 165.469,120.419 165.469,129.001" id="Fill-195" fill="#F9DFA9" sketch:type="MSShapeGroup" mask="url(#mask-4)"></path>
                <path d="M135.511,59 C153.633,59 169.176,61.935 175.414,74.4 C182.248,88.057 182.292,115.848 182.292,115.848 C182.292,115.848 180.251,113.955 178.171,113.699 C176.09,113.443 175.442,129.852 175.442,129.852 L173.026,129.852 C173.026,129.852 172.065,121.682 169.902,115.915 C169.902,115.915 166.097,110.578 168.474,106.652 C175.404,95.209 147.356,102.218 131.496,96.611 C120.4,92.688 115.423,81.673 109.762,83.926 C97.786,88.692 97.749,97.624 102.34,107.024 C104.022,110.468 101.138,115.915 101.138,115.915 C98.976,121.682 98.014,129.852 98.014,129.852 L95.599,129.852 C95.599,129.852 94.95,113.443 92.87,113.699 C90.789,113.955 88.748,115.848 88.748,115.848 C88.748,115.848 88.774,89.432 95.609,75.775 C101.847,63.31 117.39,59 135.511,59" id="Fill-196" fill="#574A48" sketch:type="MSShapeGroup" mask="url(#mask-4)"></path>
                <path d="M169.737,119.266 C169.487,117.819 168.569,116.308 168.2,114.881 C157.129,115.608 146.165,117.455 135.526,120.276 C124.887,117.455 113.922,115.608 102.852,114.881 C102.483,116.308 101.565,117.819 101.314,119.266 C100.112,126.214 103.665,135.987 114.818,137.78 C124.814,139.387 128.966,136.757 130.278,135.484 C131.54,134.258 133.742,130.26 135.526,129.767 C137.309,130.26 139.511,134.258 140.774,135.484 C142.085,136.757 146.238,139.387 156.234,137.78 C167.387,135.987 170.939,126.214 169.737,119.266" id="Fill-197" fill="#292F33" sketch:type="MSShapeGroup" mask="url(#mask-4)"></path>
                <path d="M153.544,159.583 L138.757,151.237 L135.511,151.686 L132.364,151.237 L117.479,159.583 L117.479,164.033 L135.511,162.103 L153.544,164.033 L153.544,159.583" id="Fill-198" fill="#574A48" sketch:type="MSShapeGroup" mask="url(#mask-4)"></path>
                <path d="M138.148,174.371 L133.152,174.371 L128.775,168.505 L142.525,168.505 L138.148,174.371" id="Fill-199" fill="#574A48" sketch:type="MSShapeGroup" mask="url(#mask-4)"></path>
                <path d="M181.135,98.537 L90.425,98.537 C90.425,97.582 90.463,96.542 90.538,95.436 C91.229,84.809 94.973,68.045 97.658,57.702 C100.305,47.519 109.675,43.576 119.442,46.706 C130.561,50.27 131.137,57.38 135.761,57.134 C139.978,56.898 144.289,49.088 153.895,46.328 C162.31,43.898 171.425,48.937 173.873,58.676 C177.807,74.342 180.757,92.042 181.097,97.62 C181.125,97.979 181.135,98.282 181.135,98.537" id="Fill-200" fill="#56626B" sketch:type="MSShapeGroup" mask="url(#mask-4)"></path>
                <path d="M204.923,104.503 C195.062,110.252 172.134,120.709 135.761,120.709 C97.412,120.709 72.253,108.162 62.524,102.253 C60.916,101.27 61.446,98.821 63.318,98.584 C78.729,96.693 84.364,95.824 90.538,95.436 C98.206,94.954 106.706,95.228 135.761,95.237 L137.406,95.237 C151.097,95.237 167.378,96.381 181.097,97.62 C190.476,98.48 198.655,99.388 203.997,100.012 C206.304,100.286 206.928,103.331 204.923,104.503" id="Fill-201" fill="#56626B" sketch:type="MSShapeGroup" mask="url(#mask-4)"></path>
                <path d="M204.923,104.503 C195.062,110.252 172.134,120.709 135.761,120.709 L135.761,57.134 C139.978,56.898 144.289,49.088 153.895,46.328 C162.31,43.898 171.425,48.937 173.873,58.676 C177.807,74.342 180.757,92.042 181.097,97.62 C190.476,98.48 198.655,99.388 203.997,100.012 C206.304,100.286 206.928,103.331 204.923,104.503" id="Fill-202" fill="#4E5A61" sketch:type="MSShapeGroup" mask="url(#mask-4)"></path>
                <path d="M178.67,81.003 C178.67,90.668 92.487,90.668 92.487,81.003 L89.82,96.894 C89.82,109.442 182.005,111.082 182.005,98.534 L178.67,81.003" id="Fill-203" fill="#414A50" sketch:type="MSShapeGroup" mask="url(#mask-4)"></path>
                <path d="M214.084,270.453 L56.938,270.453 C56.938,270.453 58.379,257.209 60.447,243.899 L60.447,243.888 C62.273,232.151 64.594,220.359 66.849,217.587 C77.167,204.948 116.558,196.764 116.558,196.764 C123.576,198.689 133.014,200.419 135.511,200.419 C138.426,200.419 147.875,198.568 154.497,196.764 C154.497,196.764 193.855,204.948 204.173,217.587 C206.505,220.447 208.892,232.888 210.751,244.977 C212.72,257.913 214.084,270.453 214.084,270.453" id="Fill-204" fill="#4E5A61" sketch:type="MSShapeGroup" mask="url(#mask-4)"></path>
                <path d="M214.079,270.457 L135.531,270.457 L135.511,200.915 C144.912,200.915 145.742,199.632 154.495,196.762 C154.495,196.762 193.856,204.952 204.169,217.591 C208.995,223.512 214.079,270.457 214.079,270.457" id="Fill-205" fill="#4A565C" sketch:type="MSShapeGroup" mask="url(#mask-4)"></path>
                <path d="M135.852,200.108 L135.753,252.325 L116.998,253.15 C106.482,254.734 100.707,258.155 93.359,265.69 C86.352,258.474 72.754,255.845 59.125,253.15 C59.125,251.317 63.491,221.924 66.696,217.803 C76.711,204.923 116.558,196.764 116.558,196.764 C123.576,198.689 125.435,199.195 129.67,199.338 C131.628,199.855 133.719,200.108 135.852,200.108" id="Fill-206" fill="#5A6770" sketch:type="MSShapeGroup" mask="url(#mask-4)"></path>
                <path d="M210.751,244.977 C210.553,247.529 210.388,250.257 210.245,253.15 C196.605,255.845 185.154,258.474 178.147,265.69 C170.799,258.155 165.024,254.734 154.508,253.15 L135.753,252.325 L135.852,200.108 C138.019,200.108 140.131,199.844 142.1,199.305 C145.829,199.129 147.875,198.568 154.497,196.764 C154.497,196.764 193.855,204.948 204.173,217.587 C206.505,220.447 208.892,232.888 210.751,244.977" id="Fill-207" fill="#546169" sketch:type="MSShapeGroup" mask="url(#mask-4)"></path>
                <path d="M154.376,258.806 L135.689,281.075 L117.003,258.806 L117.066,190.995 C117.109,202.989 154.36,202.522 154.439,190.995 L154.376,258.806" id="Fill-208" fill="#E5ECEC" sketch:type="MSShapeGroup" mask="url(#mask-4)"></path>
                <path d="M133.411,214.834 L124.259,258.969 L135.699,279.287 L147.503,257.506 L138.402,214.834 L133.411,214.834" id="Fill-209" fill="#32383D" sketch:type="MSShapeGroup" mask="url(#mask-4)"></path>
                <path d="M135.768,200.915 L149.77,200.915 L138.402,215.934 L133.411,215.934 L121.628,200.915 L135.768,200.915" id="Fill-210" fill="#2E3338" sketch:type="MSShapeGroup" mask="url(#mask-4)"></path>
                <path d="M117.066,190.048 C121.962,196.484 125.532,199.296 135.738,199.569 C130.802,204.22 126.526,208.542 121.939,215.772 C116.776,205.211 115.955,198.775 117.066,190.048" id="Fill-211" fill="#F9F9F9" sketch:type="MSShapeGroup" mask="url(#mask-4)"></path>
                <path d="M154.41,190.048 C149.514,196.484 145.944,199.296 135.738,199.569 C140.674,204.22 144.95,208.542 149.537,215.772 C154.7,205.211 155.521,198.775 154.41,190.048" id="Fill-212" fill="#F9F9F9" sketch:type="MSShapeGroup" mask="url(#mask-4)"></path>
                <path d="M105.299,162.804 C96.184,167.709 79.593,184.281 79.593,184.281 C86.424,190.381 93.063,193.342 98.619,203.8 L117.003,199.634 C117.071,198.214 116.457,192.326 117.018,190.048 L117.028,176.185 C113.304,172.874 108.378,167.946 105.299,162.804" id="Fill-213" fill="#424852" sketch:type="MSShapeGroup" mask="url(#mask-4)"></path>
                <path d="M98.619,203.8 L82.485,223.481 L131.086,286.276 L133.849,276.686 C133.849,276.686 125.416,242.051 120.845,223.21 C116.193,204.029 116.946,197.696 116.946,197.696 L98.619,203.8" id="Fill-214" fill="#464F57" sketch:type="MSShapeGroup" mask="url(#mask-4)"></path>
                <path d="M166,162.674 C175.115,167.579 191.943,184.281 191.943,184.281 C185.112,190.381 178.472,193.342 172.917,203.8 L154.533,199.634 C154.465,198.214 155.079,192.326 154.517,190.048 L154.508,176.185 C157.995,173.16 163.276,166.538 166,162.674" id="Fill-215" fill="#40454F" sketch:type="MSShapeGroup" mask="url(#mask-4)"></path>
                <path d="M172.917,203.8 L189.05,223.481 L121.628,303.343 L121.628,298.821 C121.628,298.821 146.12,242.051 150.69,223.21 C155.343,204.029 154.589,197.696 154.589,197.696 L172.917,203.8" id="Fill-216" fill="#444C54" sketch:type="MSShapeGroup" mask="url(#mask-4)"></path>
            </g>
        </g>
    </g>
</svg>