<?xml version="1.0" encoding="UTF-8" standalone="no"?>
<svg width="144px" height="234px" viewBox="0 0 144 234" version="1.1" xmlns="http://www.w3.org/2000/svg" xmlns:xlink="http://www.w3.org/1999/xlink" xmlns:sketch="http://www.bohemiancoding.com/sketch/ns">
    <!-- Generator: Sketch 3.3 (11970) - http://www.bohemiancoding.com/sketch -->
    <title>Group 223</title>
    <desc>Created with Sketch.</desc>
    <defs>
        <path id="path-1" d="M0.0599997075,210.690167 C1.4793978,242.454779 27.901341,268 60,268 L208,268 C241,268 268,241 268,208 L268,60 C268,27 241,0 208,0 L60,0 C27.901341,0 1.4793978,25.5452209 0.0599997075,57.3098332 L0.06,210.690173 L0.0599997075,210.690167 Z"></path>
        <path id="path-3" d="M0.0599997075,210.690167 C1.4793978,242.454779 27.901341,268 60,268 L208,268 C241,268 268,241 268,208 L268,60 C268,27 241,0 208,0 L60,0 C27.901341,0 1.4793978,25.5452209 0.0599997075,57.3098332 L0.06,210.690173"></path>
    </defs>
    <g id="Page-1" stroke="none" stroke-width="1" fill="none" fill-rule="evenodd" sketch:type="MSPage">
        <g id="15_b2NjdXBhdGlvbnMtYXBwLWljb25zLW1hbGUtMi5qcGc" sketch:type="MSLayerGroup" transform="translate(-62.000000, -324.000000)">
            <g id="Group-196" transform="translate(0.000000, 290.000000)">
                <mask id="mask-2" sketch:name="Clip 195" fill="white">
                    <use xlink:href="#path-1"></use>
                </mask>
                <g id="Clip-195"></g>
                <path d="M0.06,-290 L848,-290 L848,558 L0.06,558 L0.06,-290 Z" id="Fill-194" sketch:type="MSShapeGroup" mask="url(#mask-2)"></path>
            </g>
            <g id="Group-223" transform="translate(0.000000, 290.000000)">
                <mask id="mask-4" sketch:name="Clip 198" fill="white">
                    <use xlink:href="#path-3"></use>
                </mask>
                <g id="Clip-198"></g>
                <path d="M151.912,162.506 C151.312,170.139 152.129,188.882 154.177,218.31 L114.251,218.31 C115.647,196.517 117.069,172.431 116.516,162.506 L151.912,162.506" id="Fill-197" fill="#F9DFA9" sketch:type="MSShapeGroup" mask="url(#mask-4)"></path>
                <path d="M151.912,162.506 C151.699,172.257 151.712,179.441 152.451,190.675 C138.542,188.014 125.663,178.842 116.516,167.635 L116.516,162.506 L151.912,162.506" id="Fill-199" fill="#EBCE95" sketch:type="MSShapeGroup" mask="url(#mask-4)"></path>
                <path d="M179.461,109.57 C179.461,131.274 150.904,175.827 134.199,175.827 C117.494,175.827 88.937,133.856 88.937,109.57 C88.937,80.101 109.205,56.213 134.199,56.213 C159.193,56.213 179.461,80.101 179.461,109.57" id="Fill-200" fill="#FFE8B9" sketch:type="MSShapeGroup" mask="url(#mask-4)"></path>
                <path d="M104.366,118.168 C104.63,126.341 100.091,133.12 94.228,133.309 C88.365,133.499 83.595,123.503 83.331,115.33 C83.067,107.156 87.41,103.9 93.273,103.711 C99.136,103.522 104.102,109.995 104.366,118.168" id="Fill-201" fill="#FFE8B9" sketch:type="MSShapeGroup" mask="url(#mask-4)"></path>
                <path d="M164.032,118.168 C163.768,126.341 168.307,133.12 174.17,133.309 C180.033,133.499 184.803,123.503 185.067,115.33 C185.33,107.156 180.988,103.9 175.125,103.711 C169.262,103.522 164.295,109.995 164.032,118.168" id="Fill-202" fill="#F9DFA9" sketch:type="MSShapeGroup" mask="url(#mask-4)"></path>
                <path d="M179.461,109.57 C179.461,131.274 150.904,175.827 134.199,175.827 L134.199,56.213 C159.193,56.213 179.461,80.101 179.461,109.57" id="Fill-203" fill="#F9DFA9" sketch:type="MSShapeGroup" mask="url(#mask-4)"></path>
                <path d="M183.36,107.758 C183.36,107.758 181.45,104.828 179.26,104.558 C177.07,104.289 176.7,121.458 176.7,121.458 L174.16,121.458 C174.16,121.458 173.15,112.868 170.87,106.799 C170.87,106.799 171.96,100.708 169.61,97.438 C165.92,92.318 163.67,83.838 161.8,73.128 C161.62,73.058 161.44,73.008 161.25,72.968 C155.24,71.848 145.63,89.178 134.7,94.148 C121.88,99.978 109.5,99.978 100.01,97.049 C102.51,101.178 98.51,106.799 98.51,106.799 C96.23,112.868 95.22,121.458 95.22,121.458 L92.68,121.458 C92.68,121.458 91.99,104.198 89.8,104.458 C87.61,104.728 85.47,106.728 85.47,106.728 C82.56,99.488 77.55,76.818 84.74,62.448 C91.31,49.328 109.74,32.358 134.61,34.948 C144.41,35.958 160.82,39.388 163.45,50.638 C163.54,50.608 163.62,50.588 163.71,50.568 C171.59,48.378 181.1,56.338 184.24,62.608 C191.43,76.978 183.36,107.758 183.36,107.758" id="Fill-204" fill="#CCBFA0" sketch:type="MSShapeGroup" mask="url(#mask-4)"></path>
                <path d="M183.36,107.758 C183.36,107.758 181.45,104.828 179.26,104.558 C177.07,104.289 176.7,121.458 176.7,121.458 L174.16,121.458 C174.16,121.458 173.15,112.868 170.87,106.799 C170.87,106.799 171.96,100.708 169.61,97.438 C165.92,92.318 163.67,83.838 161.8,73.128 C161.62,73.058 161.44,73.008 161.25,72.968 L163.71,50.568 C171.59,48.378 181.1,56.338 184.24,62.608 C191.43,76.978 183.36,107.758 183.36,107.758" id="Fill-205" fill="#C7BB9C" sketch:type="MSShapeGroup" mask="url(#mask-4)"></path>
                <path d="M177.457,112.52 L174.099,111.33 C173.927,107.645 174.915,104.739 178.021,103.257 C181.127,101.775 180.437,104.113 180.437,104.113 C177.83,105.504 177.347,108.753 177.457,112.52" id="Fill-206" fill="#49535D" sketch:type="MSShapeGroup" mask="url(#mask-4)"></path>
                <path d="M181.335,118.51 C181.335,123.812 178.297,128.11 174.549,128.11 C170.802,128.11 167.764,123.812 167.764,118.51 C167.764,113.207 170.802,108.909 174.549,108.909 C178.297,108.909 181.335,113.207 181.335,118.51" id="Fill-207" fill="#323D48" sketch:type="MSShapeGroup" mask="url(#mask-4)"></path>
                <path d="M180.502,118.729 C180.502,123.07 177.998,126.589 174.91,126.589 C171.821,126.589 169.318,123.07 169.318,118.729 C169.318,114.388 171.821,110.869 174.91,110.869 C177.998,110.869 180.502,114.388 180.502,118.729" id="Fill-208" fill="#49535D" sketch:type="MSShapeGroup" mask="url(#mask-4)"></path>
                <path d="M153.145,154.879 L151.725,153.643 C162.949,149.282 169.469,140.738 172.835,129.395 L174.255,130.631 C171.113,141.617 164.527,150.003 153.145,154.879" id="Fill-209" fill="#49535D" sketch:type="MSShapeGroup" mask="url(#mask-4)"></path>
                <path d="M174.78,132.757 L171.246,132.066 L173.743,119.288 C173.932,118.322 174.868,117.691 175.834,117.88 L175.869,117.887 C176.835,118.076 177.465,119.012 177.277,119.978 L174.78,132.757" id="Fill-210" fill="#323D48" sketch:type="MSShapeGroup" mask="url(#mask-4)"></path>
                <path d="M148.212,158.935 C146.896,159.493 145.377,158.88 144.819,157.564 C144.26,156.249 144.874,154.73 146.189,154.171 C147.504,153.613 150.963,153.403 151.522,154.718 C152.08,156.033 149.527,158.376 148.212,158.935" id="Fill-211" fill="#323D48" sketch:type="MSShapeGroup" mask="url(#mask-4)"></path>
                <path d="M151.148,156.289 L150.131,153.896 L153.2,152.593 L154.216,154.987 L151.148,156.289" id="Fill-212" fill="#262F38" sketch:type="MSShapeGroup" mask="url(#mask-4)"></path>
                <path d="M152.447,183.408 L152.447,263.487 L115.98,263.487 L115.98,183.408 C115.996,188.794 121.23,193.121 125.011,193.121 C126.516,193.43 132.67,215.508 134.214,215.485 C135.578,215.467 142.058,193.404 143.387,193.121 C147.655,191.794 152.414,188.58 152.447,183.408" id="Fill-213" fill="#E5ECEC" sketch:type="MSShapeGroup" mask="url(#mask-4)"></path>
                <path d="M205.426,267.369 L62.575,267.369 C62.575,267.369 66.03,217.963 70.505,211.731 C78.26,200.986 103.332,192.668 115.912,189.814 C116.077,200.705 124.924,261.778 133.99,261.788 L134.01,261.788 C143.066,261.788 152.35,200.714 152.506,189.814 C152.506,189.814 188.167,200.035 197.738,213.333 C202.213,219.565 205.426,267.369 205.426,267.369" id="Fill-214" fill="#2F343B" sketch:type="MSShapeGroup" mask="url(#mask-4)"></path>
                <path d="M205.426,267.369 L134.199,267.369 L133.99,261.788 L134.01,261.788 C143.066,261.788 152.35,200.714 152.506,189.814 C152.506,189.814 188.167,200.035 197.738,213.333 C202.213,219.565 205.426,267.369 205.426,267.369" id="Fill-215" fill="#292D33" sketch:type="MSShapeGroup" mask="url(#mask-4)"></path>
                <path d="M116.218,181.764 C104.841,191.379 101.409,195.264 104.578,212.995 L114.79,212.995 L105.147,220.834 C109.866,239.016 119.856,251.467 134.131,265.131 L134.113,261.085 C123.313,239.889 120.022,207.255 116.218,181.764" id="Fill-216" fill="#454D57" sketch:type="MSShapeGroup" mask="url(#mask-4)"></path>
                <path d="M152.165,181.764 C164.342,192.845 167.806,194.706 163.778,212.995 L153.565,212.995 L163.208,220.834 C157.493,239.031 148.077,254.035 134.131,265.131 L134.149,261.085 C144.949,239.889 148.361,207.255 152.165,181.764" id="Fill-217" fill="#454D57" sketch:type="MSShapeGroup" mask="url(#mask-4)"></path>
                <path d="M115.98,179.607 C118.347,187.915 119.52,189.814 125.011,193.121 C118.29,195.827 118.063,201.226 110.686,206.634 C109.658,194.118 111.479,187.857 115.98,179.607" id="Fill-218" fill="#F9F9F9" sketch:type="MSShapeGroup" mask="url(#mask-4)"></path>
                <path d="M152.418,179.607 C150.051,187.915 148.878,189.814 143.387,193.121 C150.107,195.827 150.335,201.226 157.712,206.634 C158.74,194.118 156.919,187.857 152.418,179.607" id="Fill-219" fill="#F9F9F9" sketch:type="MSShapeGroup" mask="url(#mask-4)"></path>
                <path d="M179.77,280.792 L86.84,280.792 C82.301,280.792 78.519,277.316 78.136,272.794 L73.849,222.13 C73.418,217.034 77.438,212.659 82.553,212.659 L184.057,212.659 C189.172,212.659 193.192,217.034 192.761,222.13 L188.473,272.794 C188.091,277.316 184.308,280.792 179.77,280.792" id="Fill-220" fill="#FFFFFF" sketch:type="MSShapeGroup" mask="url(#mask-4)"></path>
                <path d="M86.84,278.592 C83.417,278.592 80.617,276.02 80.329,272.608 L76.042,221.945 C75.885,220.101 76.489,218.335 77.742,216.972 C78.993,215.61 80.702,214.859 82.553,214.859 L184.057,214.859 C185.908,214.859 187.617,215.61 188.868,216.972 C190.121,218.335 190.725,220.101 190.568,221.945 L186.281,272.608 C185.993,276.02 183.193,278.592 179.77,278.592 L86.84,278.592" id="Fill-221" fill="#F9FBFC" sketch:type="MSShapeGroup" mask="url(#mask-4)"></path>
                <path d="M142.045,243.325 C142.045,248.152 138.132,252.065 133.305,252.065 C128.478,252.065 124.564,248.152 124.564,243.325 C124.564,238.498 128.478,234.584 133.305,234.584 C138.132,234.584 142.045,238.498 142.045,243.325" id="Fill-222" fill="#CBD0D3" sketch:type="MSShapeGroup" mask="url(#mask-4)"></path>
            </g>
        </g>
    </g>
</svg>